<svg xmlns="http://www.w3.org/2000/svg" xmlns:xlink="http://www.w3.org/1999/xlink" width="633" zoomAndPan="magnify" viewBox="0 0 474.75 772.499977" height="1030" preserveAspectRatio="xMidYMid meet" version="1.0"><defs><clipPath id="d80e38e021"><path d="M 0.0273438 0 L 474.472656 0 L 474.472656 772 L 0.0273438 772 Z M 0.0273438 0 " clip-rule="nonzero"/></clipPath><clipPath id="94e0349b40"><path d="M 307 307 L 426.738281 307 L 426.738281 378 L 307 378 Z M 307 307 " clip-rule="nonzero"/></clipPath><clipPath id="d3b6750410"><path d="M 34.742188 68 L 426.738281 68 L 426.738281 600 L 34.742188 600 Z M 34.742188 68 " clip-rule="nonzero"/></clipPath><clipPath id="a6c7cc98cb"><path d="M 74 355 L 426.738281 355 L 426.738281 655 L 74 655 Z M 74 355 " clip-rule="nonzero"/></clipPath><clipPath id="69cf4c5d34"><path d="M 199 56.777344 L 262 56.777344 L 262 82 L 199 82 Z M 199 56.777344 " clip-rule="nonzero"/></clipPath><clipPath id="ee9ea541f7"><path d="M 90 723 L 141 723 L 141 756.824219 L 90 756.824219 Z M 90 723 " clip-rule="nonzero"/></clipPath><clipPath id="df9875613d"><path d="M 320 722 L 372 722 L 372 756.824219 L 320 756.824219 Z M 320 722 " clip-rule="nonzero"/></clipPath></defs><g clip-path="url(#d80e38e021)"><path fill="#ffffff" d="M 0.0273438 0 L 474.472656 0 L 474.472656 772 L 0.0273438 772 Z M 0.0273438 0 " fill-opacity="1" fill-rule="nonzero"/><path fill="#ffffff" d="M 0.0273438 0 L 474.472656 0 L 474.472656 772 L 0.0273438 772 Z M 0.0273438 0 " fill-opacity="1" fill-rule="nonzero"/></g><g clip-path="url(#94e0349b40)"><path fill="#3c93d6" d="M 427.011719 377.59375 L 427.011719 321.183594 C 413.589844 321.804688 400.046875 323.667969 386.503906 327.148438 L 371.347656 307.765625 L 375.695312 330.128906 C 366.996094 332.863281 358.175781 336.21875 349.355469 340.441406 L 334.566406 324.042969 L 339.785156 345.289062 C 329.226562 350.878906 318.664062 357.589844 307.976562 365.539062 C 334.320312 349.886719 389.238281 326.652344 427.011719 377.59375 Z M 427.011719 377.59375 " fill-opacity="1" fill-rule="nonzero"/></g><g clip-path="url(#d3b6750410)"><path fill="#3c93d6" d="M 295.429688 376.722656 C 281.511719 388.527344 269.710938 400.457031 259.894531 412.757812 L 239.890625 403.808594 L 253.308594 421.328125 C 247.59375 429.28125 242.621094 437.234375 238.273438 445.308594 L 217.027344 436.859375 L 233.304688 455.375 C 225.601562 472.023438 220.628906 488.921875 217.523438 506.066406 C 176.769531 414.992188 246.722656 385.546875 281.636719 376.722656 C 268.464844 378.710938 256.164062 381.445312 244.859375 384.925781 L 233.429688 366.285156 L 234.671875 388.277344 C 225.476562 391.632812 216.902344 395.359375 208.828125 399.585938 L 196.277344 380.449219 L 199.257812 404.804688 C 183.480469 414.246094 169.8125 425.429688 157.757812 437.855469 C 177.019531 329.882812 265.113281 358.707031 292.324219 370.511719 C 292.199219 370.386719 292.199219 370.136719 292.074219 369.890625 C 278.78125 358.957031 265.609375 350.132812 252.5625 342.925781 L 257.90625 321.679688 L 242.996094 337.957031 C 234.171875 333.734375 225.476562 330.253906 216.777344 327.394531 L 221.375 305.03125 L 206.09375 324.289062 C 188.324219 319.566406 170.804688 317.582031 153.410156 317.582031 C 221.003906 271.730469 260.886719 306.148438 281.265625 338.207031 C 272.941406 301.179688 276.667969 248.496094 356.933594 233.089844 C 344.632812 245.390625 333.699219 259.183594 324.503906 275.085938 L 300.027344 272.351562 L 319.160156 284.902344 C 315.0625 293.101562 311.332031 301.675781 308.226562 310.996094 L 286.109375 310.125 L 304.996094 321.308594 C 300.894531 335.597656 297.789062 351.253906 296.175781 368.398438 C 296.296875 368.648438 296.296875 368.769531 296.421875 369.019531 C 306.859375 342.679688 345.378906 266.140625 427.011719 313.480469 L 427.011719 305.03125 C 427.011719 257.195312 388.246094 218.304688 340.285156 218.304688 L 291.824219 218.304688 L 291.824219 104.613281 C 291.824219 88.335938 281.761719 74.296875 267.597656 68.457031 C 267.597656 68.707031 267.597656 69.078125 267.597656 69.328125 C 267.597656 73.800781 265.980469 77.777344 263.371094 81.007812 C 272.320312 85.105469 278.65625 94.175781 278.65625 104.613281 L 278.65625 218.054688 L 183.230469 218.054688 L 183.230469 104.613281 C 183.230469 94.054688 189.441406 85.105469 198.511719 81.007812 C 195.902344 77.902344 194.289062 73.800781 194.289062 69.328125 C 194.289062 69.078125 194.289062 68.707031 194.289062 68.457031 C 180.125 74.296875 170.058594 88.335938 170.058594 104.613281 L 170.058594 218.054688 L 121.601562 218.054688 C 73.515625 218.054688 34.75 256.820312 34.75 304.78125 L 34.75 599.628906 C 62.582031 574.28125 112.285156 542.101562 195.65625 522.71875 C 348.113281 487.554688 295.429688 376.722656 295.429688 376.722656 Z M 295.429688 376.722656 " fill-opacity="1" fill-rule="nonzero"/></g><path fill="#f68712" d="M 383.273438 653.429688 C 373.957031 646.96875 366.003906 641.378906 348.980469 641.378906 C 332.082031 641.378906 324.007812 646.96875 314.6875 653.429688 C 304.996094 660.140625 293.9375 667.84375 272.816406 667.84375 C 251.691406 667.84375 240.757812 660.140625 230.941406 653.429688 C 221.625 646.96875 213.671875 641.378906 196.648438 641.378906 C 179.75 641.378906 171.675781 646.96875 162.355469 653.429688 C 152.664062 660.140625 141.605469 667.84375 120.484375 667.84375 C 99.363281 667.84375 88.425781 660.140625 78.613281 653.429688 C 74.015625 650.199219 69.789062 647.21875 64.570312 645.105469 C 59.601562 650.324219 55.253906 655.542969 51.402344 660.511719 C 68.050781 662.003906 77.617188 668.710938 86.191406 674.675781 C 95.511719 681.136719 103.460938 686.730469 120.484375 686.730469 C 137.507812 686.730469 145.457031 681.136719 154.777344 674.675781 C 164.46875 667.96875 175.527344 660.261719 196.648438 660.261719 C 217.773438 660.261719 228.707031 667.96875 238.523438 674.675781 C 247.839844 681.136719 255.792969 686.730469 272.816406 686.730469 C 289.714844 686.730469 297.789062 681.136719 307.109375 674.675781 C 316.800781 667.96875 327.859375 660.261719 348.980469 660.261719 C 370.105469 660.261719 381.039062 667.96875 390.855469 674.675781 C 395.699219 678.03125 400.046875 681.136719 405.640625 683.375 C 409.863281 678.527344 413.589844 673.183594 416.574219 667.46875 C 400.917969 665.730469 391.597656 659.269531 383.273438 653.429688 Z M 383.273438 653.429688 " fill-opacity="1" fill-rule="nonzero"/><g clip-path="url(#a6c7cc98cb)"><path fill="#f68712" d="M 397.9375 386.910156 L 396.320312 362.433594 L 387.375 383.433594 C 378.675781 380.824219 369.484375 378.710938 359.789062 377.097656 L 356.808594 355.226562 L 349.105469 375.730469 C 334.320312 374.113281 318.292969 373.867188 301.144531 375.234375 C 313.570312 393.746094 372.589844 496.375 207.460938 558.128906 C 143.71875 581.984375 102.09375 609.445312 74.882812 635.164062 C 79.234375 637.527344 83.085938 640.132812 86.5625 642.621094 C 95.882812 649.082031 103.835938 654.671875 120.855469 654.671875 C 137.878906 654.671875 145.832031 649.082031 155.148438 642.621094 C 164.839844 635.910156 175.898438 628.207031 197.023438 628.207031 C 218.144531 628.207031 229.078125 635.910156 238.894531 642.621094 C 248.214844 649.082031 256.164062 654.671875 273.1875 654.671875 C 290.085938 654.671875 298.164062 649.082031 307.480469 642.621094 C 317.171875 635.910156 328.230469 628.207031 349.355469 628.207031 C 370.476562 628.207031 381.410156 635.910156 391.226562 642.621094 C 399.925781 648.707031 407.628906 654.050781 422.660156 654.671875 C 425.769531 645.851562 427.382812 636.28125 427.382812 626.34375 L 427.382812 400.207031 C 417.816406 395.113281 408.25 390.640625 397.9375 386.910156 Z M 397.9375 386.910156 " fill-opacity="1" fill-rule="nonzero"/></g><path fill="#f68712" d="M 383.273438 685.484375 C 373.957031 679.023438 366.003906 673.433594 348.980469 673.433594 C 332.082031 673.433594 324.007812 679.023438 314.6875 685.484375 C 304.996094 692.195312 293.9375 699.898438 272.816406 699.898438 C 251.691406 699.898438 240.757812 692.195312 230.941406 685.484375 C 221.625 679.023438 213.671875 673.433594 196.648438 673.433594 C 179.75 673.433594 171.675781 679.023438 162.355469 685.484375 C 152.664062 692.195312 141.605469 699.898438 120.484375 699.898438 C 99.363281 699.898438 88.425781 692.195312 78.613281 685.484375 C 70.039062 679.523438 62.582031 674.304688 48.292969 673.558594 C 63.703125 697.289062 90.539062 713.070312 120.980469 713.070312 L 339.785156 713.070312 C 360.785156 713.070312 380.042969 705.613281 394.953125 693.191406 C 390.976562 690.828125 387 688.09375 383.273438 685.484375 Z M 383.273438 685.484375 " fill-opacity="1" fill-rule="nonzero"/><g clip-path="url(#69cf4c5d34)"><path fill="#3c93d6" d="M 212.429688 82 L 249.332031 82 C 256.289062 82 261.882812 76.410156 261.882812 69.453125 C 261.882812 62.492188 256.289062 56.902344 249.332031 56.902344 L 212.429688 56.902344 C 205.472656 56.902344 199.878906 62.492188 199.878906 69.453125 C 199.878906 76.285156 205.472656 82 212.429688 82 Z M 212.429688 82 " fill-opacity="1" fill-rule="nonzero"/></g><g clip-path="url(#ee9ea541f7)"><path fill="#f68712" d="M 90.167969 723.011719 L 90.167969 731.582031 C 90.167969 745.625 101.472656 756.929688 115.515625 756.929688 C 129.554688 756.929688 140.859375 745.625 140.859375 731.582031 L 140.859375 728.226562 L 121.476562 728.226562 C 110.542969 728.105469 99.984375 726.363281 90.167969 723.011719 Z M 90.167969 723.011719 " fill-opacity="1" fill-rule="nonzero"/></g><g clip-path="url(#df9875613d)"><path fill="#f68712" d="M 320.902344 728.105469 L 320.902344 731.457031 C 320.902344 745.5 332.207031 756.804688 346.246094 756.804688 C 360.289062 756.804688 371.59375 745.5 371.59375 731.457031 L 371.59375 722.886719 C 361.777344 726.242188 351.21875 727.980469 340.285156 727.980469 L 320.902344 727.980469 Z M 320.902344 728.105469 " fill-opacity="1" fill-rule="nonzero"/></g></svg>